<svg xmlns="http://www.w3.org/2000/svg" xmlns:xlink="http://www.w3.org/1999/xlink" width="1202.758" height="317.528" viewBox="0 0 1202.758 317.528">
  <defs>
    <clipPath id="clip-path">
      <rect id="Rectangle_70" data-name="Rectangle 70" width="1196.877" height="317.528" fill="#c4c4c4"/>
    </clipPath>
    <clipPath id="clip-path-2">
      <rect id="Rectangle_72" data-name="Rectangle 72" width="183.3" height="236.503" fill="none"/>
    </clipPath>
  </defs>
  <g id="Group_47" data-name="Group 47" transform="translate(-206.621 -129)">
    <g id="Group_25" data-name="Group 25" transform="translate(-47.499 -1140)">
      <g id="Group_19" data-name="Group 19" transform="translate(260 1269)">
        <g id="Group_17" data-name="Group 17" transform="translate(0 0)" clip-path="url(#clip-path)">
          <path id="Path_23" data-name="Path 23" d="M90.64,160.213v81.561h-37.4V0h37.4V153.121l68.986-75.755h49.967l-75.432,79.3,78.656,85.106H161.56Z" transform="translate(144.032 0)" fill="#c4c4c4"/>
          <path id="Path_24" data-name="Path 24" d="M102.878,22.058h37.4V47.527c9.344-17.084,24.5-27.081,44.81-27.081a67.632,67.632,0,0,1,11.6.967V58.164a82.048,82.048,0,0,0-12.568-.971c-26.758,0-43.843,16.443-43.843,42.235v87.037h-37.4Z" transform="translate(278.297 55.308)" fill="#c4c4c4"/>
          <rect id="Rectangle_69" data-name="Rectangle 69" width="37.396" height="241.773" transform="translate(692.56)" fill="#c4c4c4"/>
          <path id="Path_25" data-name="Path 25" d="M206.32,24.854a22.405,22.405,0,1,1,22.245,22.568A22.29,22.29,0,0,1,206.32,24.854m3.546,45.454h37.4V234.716h-37.4Z" transform="translate(558.119 7.057)" fill="#c4c4c4"/>
          <path id="Path_26" data-name="Path 26" d="M227.636,22.058h37.4V45.911c10.96-16.117,29.659-25.465,53.191-25.465,42.231,0,67.051,29.333,67.051,79.627v86.392H347.556V103.941c0-31.271-14.506-49-41.264-49-26.429,0-41.26,17.729-41.26,49v82.524h-37.4Z" transform="translate(615.781 55.308)" fill="#c4c4c4"/>
          <path id="Path_27" data-name="Path 27" d="M285.76,202.908h37.073c3.546,17.729,19.663,27.077,42.876,27.077,25.791,0,42.553-13.861,42.553-39.652v-31.59c-12.575,16.44-31.271,26.114-54.157,26.114-43.843,0-76.4-34.172-76.4-82.205s32.557-82.205,76.4-82.205c22.886,0,41.582,9.674,54.157,26.11v-24.5h37.392V190.333c0,44.81-31.912,71.887-79.945,71.887-43.839,0-76.4-23.531-79.949-59.311m122.5-100.257c0-27.722-19.667-47.711-46.744-47.711-26.432,0-46.421,19.663-46.421,47.711s19.989,47.711,46.421,47.711c27.077,0,46.744-19.989,46.744-47.711" transform="translate(751.223 55.308)" fill="#c4c4c4"/>
        </g>
      </g>
      <g id="Group_21" data-name="Group 21" transform="translate(254.12 1278.057)">
        <g id="Group_20" data-name="Group 20" clip-path="url(#clip-path-2)">
          <path id="Path_30" data-name="Path 30" d="M175.956,138.617a54.733,54.733,0,0,0-19.295-18.641,122.239,122.239,0,0,0-26.611-11.164c-9.808-2.862-19.731-5.468-29.492-7.743-9.9-2.312-18.954-4.7-26.9-7.108C65.608,91.546,59,88.125,54.018,83.813c-5.032-4.359-7.581-10.2-7.581-17.343a26.539,26.539,0,0,1,5.2-16.111c3.45-4.672,8.956-8.491,16.376-11.372,7.392-2.871,17.153-4.321,29.027-4.321a122.5,122.5,0,0,1,31.785,4.473,128.2,128.2,0,0,1,31.634,13.448l13.163-32.43a119.554,119.554,0,0,0-35.149-14.9A164.511,164.511,0,0,0,97.374,0C76.43,0,58.908,3.146,45.3,9.354S21.455,23.929,14.831,34.24A62.249,62.249,0,0,0,4.843,68.451c0,12.168,2.53,22.289,7.515,30.089a57.584,57.584,0,0,0,19.456,18.8,122.43,122.43,0,0,0,26.611,11.5c9.761,2.957,19.626,5.563,29.321,7.733,9.723,2.189,18.726,4.577,26.753,7.108,8.046,2.53,14.7,6.008,19.788,10.311,5.146,4.359,7.752,10.2,7.752,17.343a24.8,24.8,0,0,1-5.383,15.627c-3.554,4.558-9.174,8.216-16.7,10.879-7.5,2.644-17.428,3.98-29.511,3.98A125.417,125.417,0,0,1,48.4,194.549C35.036,189.811,23.607,183.8,14.452,176.7L0,209.134c9.562,7.961,22.612,14.566,38.808,19.636A172.7,172.7,0,0,0,90.447,236.5c20.934,0,38.514-3.156,52.236-9.363,13.7-6.2,24-14.566,30.639-24.886a61.756,61.756,0,0,0,9.979-33.88c0-11.941-2.473-21.958-7.345-29.757" fill="#c4c4c4"/>
        </g>
      </g>
    </g>
  </g>
</svg>
